<?xml version="1.0" encoding="UTF-8" standalone="no" ?>
<!DOCTYPE svg PUBLIC "-//W3C//DTD SVG 1.1//EN" "http://www.w3.org/Graphics/SVG/1.1/DTD/svg11.dtd">
<svg xmlns="http://www.w3.org/2000/svg" xmlns:xlink="http://www.w3.org/1999/xlink" version="1.1" width="700" height="150" viewBox="0 0 700 150" xml:space="preserve">
<desc>Created with Fabric.js 3.6.6</desc>
<defs>
</defs>
<g transform="matrix(1 0 0 1 308 216)"  >
<g style=""   >
		<g transform="matrix(1 0 0 1 -300 -25)"  >
<rect style="stroke: none; stroke-width: 1; stroke-dasharray: none; stroke-linecap: butt; stroke-dashoffset: 0; stroke-linejoin: miter; stroke-miterlimit: 4; fill: rgb(255,255,255); fill-opacity: 0; fill-rule: nonzero; opacity: 1;"  x="-50" y="-50" rx="0" ry="0" width="100" height="100" />
</g>
		<g transform="matrix(1 0 0 1 0 0)"  >
<rect style="stroke: none; stroke-width: 1; stroke-dasharray: none; stroke-linecap: butt; stroke-dashoffset: 0; stroke-linejoin: miter; stroke-miterlimit: 4; fill: rgb(255,255,255); fill-rule: nonzero; opacity: 1; visibility: hidden;"  x="-350" y="-75" rx="0" ry="0" width="700" height="150" />
</g>
		<g transform="matrix(-0.04 0 0 -0.04 0 -10.16)"  >
<path style="stroke: rgb(0,0,0); stroke-width: 0; stroke-dasharray: none; stroke-linecap: butt; stroke-dashoffset: 0; stroke-linejoin: miter; stroke-miterlimit: 4; fill: rgb(186,221,32); fill-rule: nonzero; opacity: 1;"  transform=" translate(-2988.66, -2989.51)" d="M 2960 4110 C 2960 4105 2954 4100 2948 4100 C 2932 4100 2606 3938 2602 3928 C 2600 3923 2594 3920 2589 3920 C 2581 3920 2432 3849 2340 3801 C 2279 3769 2268 3762 2268 3754 C 2268 3749 2287 3735 2311 3722 C 2335 3709 2358 3691 2362 3682 C 2370 3661 2372 3377 2364 3356 C 2361 3347 2353 3340 2346 3340 C 2332 3340 1947 3531 1939 3542 C 1936 3547 1918 3553 1899 3556 C 1867 3561 1844 3555 1793 3527 C 1781 3520 1634 3448 1466 3365 C 1271 3269 1161 3210 1163 3201 C 1164 3194 1185 3177 1210 3164 L 1255 3140 L 1260 2928 L 1265 2717 L 1309 2693 C 1333 2680 1357 2670 1361 2670 C 1366 2670 1371 2788 1372 2932 L 1375 3194 L 1477 3244 C 1533 3272 1598 3304 1622 3315 C 1645 3326 1667 3337 1670 3340 C 1679 3349 1767 3390 1779 3390 C 1785 3390 1790 3394 1790 3400 C 1790 3411 1859 3432 1872 3424 C 1876 3421 1880 3191 1880 2912 L 1881 2405 L 2188 2252 L 2495 2100 L 2537 2121 C 2606 2155 2606 2162 2540 2199 L 2480 2231 L 2480 2984 C 2480 3689 2481 3738 2498 3751 C 2514 3765 2602 3810 2612 3810 C 2615 3810 2650 3828 2689 3849 C 2728 3871 2770 3892 2780 3895 C 2791 3899 2836 3921 2880 3945 C 2924 3970 2966 3987 2975 3984 C 2988 3979 2990 3859 2990 2919 C 2990 2206 2993 1860 3000 1860 C 3006 1860 3027 1870 3048 1883 C 3100 1915 3535 2130 3549 2130 C 3555 2130 3560 2133 3560 2138 C 3560 2142 3584 2156 3613 2169 C 3731 2222 3729 2219 3664 2251 C 3639 2264 3615 2281 3611 2290 C 3598 2314 3597 3166 3610 3189 C 3616 3201 3719 3258 3856 3326 C 4045 3419 4094 3440 4101 3429 C 4106 3421 4110 3205 4109 2922 C 4108 2651 4110 2427 4113 2424 C 4116 2421 4162 2441 4215 2469 C 4268 2497 4318 2520 4325 2520 C 4332 2520 4340 2523 4342 2528 C 4344 2532 4381 2552 4425 2573 C 4469 2593 4512 2615 4520 2620 C 4546 2637 4618 2670 4629 2670 C 4634 2670 4640 2674 4642 2679 C 4646 2690 4756 2743 4790 2750 C 4820 2756 4823 2780 4795 2795 C 4784 2800 4760 2815 4742 2828 L 4710 2851 L 4710 3048 C 4710 3156 4706 3251 4702 3258 C 4697 3265 4629 3302 4549 3341 C 4470 3379 4392 3418 4375 3427 C 4359 3436 4336 3448 4325 3453 C 4314 3459 4298 3467 4290 3471 C 4217 3510 4106 3560 4093 3560 C 4084 3560 3976 3510 3854 3449 C 3721 3382 3625 3340 3616 3343 C 3602 3349 3600 3377 3602 3581 L 3605 3812 L 3470 3881 C 3396 3919 3319 3957 3300 3965 C 3281 3974 3204 4012 3130 4050 C 3000 4117 2960 4131 2960 4110 z" stroke-linecap="round" />
</g>
		<g transform="matrix(1.22 0 0 1.22 -222.88 28.56)"  >
<path style="stroke: none; stroke-width: 1; stroke-dasharray: none; stroke-linecap: butt; stroke-dashoffset: 0; stroke-linejoin: miter; stroke-miterlimit: 4; fill: rgb(186,221,32); fill-rule: evenodd; opacity: 0.88;"  transform=" translate(-104.04, -35.69)" d="M 13.926 34.279 C 14.56589327284064 34.759661398752634 14.857636541864458 35.57550674130695 14.667632007932019 36.352936518176 C 14.477627473999577 37.13036629504505 13.842463382878313 37.71967464840377 13.053 37.851000000000006 C 12.301 37.976000000000006 9.497 38.214000000000006 6.9590000000000005 38.321000000000005 C 5.6770000000000005 38.376000000000005 4.3790000000000004 38.401 3.3830000000000005 38.355000000000004 C 2.9030000000000005 38.332 2.3910000000000005 38.290000000000006 1.9610000000000005 38.19500000000001 C 1.6550265098230468 38.13174228799717 1.3608129353846263 38.02107479669464 1.0890000000000004 37.867000000000004 C 0.8060000000000005 37.702000000000005 -0.08699999999999952 37.07300000000001 0.007000000000000339 35.853 C 0.04500000000000034 35.351 0.22200000000000034 34.856 0.3620000000000003 34.508 C 0.5220000000000004 34.11 0.7310000000000003 33.676 0.9620000000000003 33.237 C 1.4836013533489472 32.26101389881994 2.0570889975391733 31.313657708941083 2.6799999999999966 30.398999999999997 C 3.3200000000000003 29.454 4.03 28.511000000000003 4.7 27.773 C 5.027024053047117 27.406128424498295 5.383549428464423 27.066660079236975 5.766 26.758 C 6.066 26.523 6.66 26.099999999999998 7.4239999999999995 26.02 C 8.496544749646823 25.89403985655249 9.559995967210211 26.319269819697084 10.25 27.15 C 10.814 27.814999999999998 11.079 28.619999999999997 11.22 29.227999999999998 C 11.360000000000001 29.825 11.425 30.453999999999997 11.457 30.999999999999996 C 11.836838932284376 30.53912333155836 12.402768968286106 30.272112919238687 13 30.272 C 15.968 30.272 19.023 30.497999999999998 22 30.718999999999998 C 23.512 30.830999999999996 25.005 30.941999999999997 26.455 31.020999999999997 C 45.93794508878142 32.08180640478727 65.36730731557519 33.9661569415159 84.69100000000054 36.669000000000025 C 86.533 36.925999999999995 88.544 37.297 90.541 37.665 C 91.937 37.923 93.326 38.179 94.64399999999999 38.394999999999996 C 97.98799999999999 38.94 101.20599999999999 39.285 104.18499999999999 39.047999999999995 Q 104.39399999999999 39.029999999999994 104.57 38.989999999999995 C 104.15899999999999 38.55 103.80999999999999 38.074999999999996 103.57199999999999 37.565999999999995 C 103.219 36.815999999999995 103.00299999999999 35.715999999999994 103.63099999999999 34.672999999999995 C 104.21899999999998 33.699 105.22099999999999 33.333999999999996 105.97299999999998 33.205999999999996 C 106.76399999999998 33.06999999999999 107.64999999999999 33.12199999999999 108.55999999999999 33.287 C 112.28299999999999 33.964 115.92699999999999 34.941 119.47999999999999 35.894 L 119.895 36.006 C 123.60799999999999 37.001 127.229 37.958 130.909 38.581 C 139.296 40 147.73 39.996 156.414 39.993 L 157.706 39.993 C 157.929 39.993 158.45499999999998 39.980000000000004 159.12699999999998 39.959 C 158.27820651472763 39.20355445912678 157.47794849444128 38.39528049873737 156.731 37.539 C 156.317 37.058 155.963 36.572 155.71699999999998 36.083 C 155.48399999999998 35.617999999999995 155.24499999999998 34.946 155.36399999999998 34.181999999999995 C 155.4842167742127 33.409766345174646 155.95191696187 32.735305081649955 156.63299999999998 32.352 C 157.14799999999997 32.053999999999995 157.689 31.958999999999996 158.07399999999998 31.921999999999997 C 158.856 31.848999999999997 159.72099999999998 31.959999999999997 160.398 32.07899999999999 C 161.111 32.205999999999996 161.791 32.37499999999999 162.259 32.498999999999995 C 172.523 35.236 182.82199999999997 37.650999999999996 193.24099999999999 39.669 Q 194.33499999999998 39.882999999999996 195.39899999999997 40.099 C 197.35499999999996 40.495999999999995 199.24299999999997 40.878 201.11899999999997 41.123 Q 200.84399999999997 40.925 200.55999999999997 40.729 C 199.46499999999997 39.975 198.35499999999996 39.297 197.24199999999996 38.616 C 196.72999999999996 38.303 196.21799999999996 37.99 195.70699999999997 37.669 C 195.08674244109204 37.29627271675758 194.71619888263444 36.61757075548885 194.73806883205518 35.894268071705625 C 194.75993878147594 35.17096538792241 195.17081072958965 34.5158904890004 195.81245435968032 34.181318345779054 C 196.45409798977101 33.84674620255771 197.22642284915074 33.88486696499155 197.83199999999997 34.281 C 198.26399999999995 34.551 198.72999999999996 34.836999999999996 199.21699999999996 35.134 L 199.21899999999997 35.136 C 200.37399999999997 35.842000000000006 201.64199999999997 36.618 202.82799999999997 37.434000000000005 C 204.53699999999998 38.611000000000004 206.26899999999998 39.996 207.59699999999998 41.679 C 207.82199999999997 41.964 208.18999999999997 42.571000000000005 208.06199999999998 43.389 C 207.96338472680472 43.99658804951616 207.61250410773215 44.53416912221536 207.09599999999998 44.869 C 206.57799999999997 45.209 205.98699999999997 45.291 205.77199999999996 45.32 C 205.17399999999995 45.401 204.48199999999997 45.389 204.17399999999995 45.38 C 200.85599999999994 45.292 197.54799999999994 44.620000000000005 194.47299999999996 43.995000000000005 C 193.80929610791836 43.85887504939657 193.14495542141105 43.72587357728601 192.47999999999996 43.59600000000003 C 181.95899999999995 41.559000000000005 171.56999999999996 39.122 161.22799999999995 36.365 L 161.17399999999995 36.35 L 161.09499999999994 36.33 C 162.51199999999994 37.696 164.19099999999995 38.988 165.80799999999994 40.028 C 165.94799999999992 40.118 166.78799999999993 40.682 166.72499999999994 41.821999999999996 C 166.69017706704082 42.45401540641703 166.35822618192674 43.032240467749794 165.82999999999993 43.38099999999999 L 165.82599999999994 43.38399999999999 C 165.63246060946793 43.5113033586837 165.41827600778305 43.60401517679059 165.19299999999993 43.657999999999994 C 165.06499999999994 43.68999999999999 164.9519999999999 43.70399999999999 164.92199999999994 43.70799999999999 L 164.91899999999995 43.70799999999999 C 164.82699999999994 43.718999999999994 164.72499999999997 43.727999999999994 164.63999999999996 43.733999999999995 C 164.45699999999997 43.74699999999999 164.20299999999995 43.76199999999999 163.91299999999995 43.776999999999994 C 163.32599999999996 43.806999999999995 162.52999999999994 43.839999999999996 161.70699999999997 43.87199999999999 C 160.07999999999996 43.934999999999995 158.25799999999995 43.99199999999999 157.70599999999996 43.99199999999999 L 156.31999999999996 43.99299999999999 L 156.31799999999996 43.99299999999999 C 147.71599999999995 43.99799999999999 138.97099999999995 44.00199999999999 130.24199999999996 42.52499999999999 C 126.34899999999996 41.864999999999995 122.55399999999996 40.85999999999999 118.85999999999996 39.86899999999999 L 118.49999999999996 39.772999999999996 C 115.12599999999996 38.867999999999995 111.83599999999996 37.986 108.50399999999996 37.346 C 108.79999999999997 37.781 109.00899999999996 38.29 109.06699999999996 38.866 C 109.16099999999996 39.824 108.80199999999996 40.646 108.31899999999996 41.24 C 107.41199999999996 42.357 105.91599999999995 42.922000000000004 104.50399999999996 43.035000000000004 C 101.03499999999997 43.312000000000005 97.43499999999996 42.902 93.99999999999996 42.342000000000006 C 92.47599999999996 42.09400000000001 91.03399999999996 41.82600000000001 89.63599999999995 41.56700000000001 C 87.75599999999996 41.21800000000001 85.95399999999995 40.88400000000001 84.13799999999995 40.63000000000001 C 64.92579296511968 37.942880759737115 45.6085305630118 36.069540027650135 26.23799999999992 35.015 C 24.653614802302577 34.924179152622095 23.07019883487311 34.817173568296866 21.487999999999943 34.69400000000001 C 18.92699999999995 34.50300000000001 16.43899999999995 34.31700000000001 13.924999999999951 34.27900000000001 M 11.30099999999995 33.32900000000001 C 11.23399999999995 33.48700000000001 11.08099999999995 33.79500000000001 10.76399999999995 34.07200000000001 C 11.23699999999995 34.03200000000001 11.636999999999949 33.99400000000001 11.93099999999995 33.96200000000001 C 11.675972335644683 33.80118317352243 11.46060348580748 33.58478875773363 11.300999999999949 33.32900000000001 M 7.910999999999948 33.88600000000001 C 7.9759999999999485 33.95800000000001 8.114999999999949 34.10600000000001 8.331999999999947 34.24600000000001 C 7.827999999999948 34.27600000000001 7.306999999999947 34.30300000000001 6.788999999999947 34.32500000000001 C 6.118999999999947 34.35300000000001 5.477999999999947 34.37200000000001 4.900999999999947 34.37700000000001 C 5.220999999999948 33.82400000000001 5.594999999999947 33.22700000000001 5.990999999999947 32.64300000000001 C 6.306999999999947 32.175000000000004 6.626999999999947 31.732000000000006 6.933999999999947 31.33600000000001 C 6.990999999999947 31.58300000000001 7.048999999999947 31.81600000000001 7.103999999999947 32.02600000000001 C 7.213999999999947 32.43500000000001 7.366999999999947 32.96300000000001 7.545999999999947 33.33100000000001 C 7.583999999999947 33.41000000000001 7.700999999999947 33.65100000000001 7.911999999999947 33.88600000000001 M 2.8259999999999463 34.28900000000001 Q 2.7939999999999463 34.281000000000006 2.827999999999946 34.28900000000001 z M 7.483999999999947 32.32900000000001 Q 7.483999999999947 32.34400000000001 7.483999999999947 32.32900000000001 M 159.27999999999994 34.25900000000001 L 159.28699999999995 34.275000000000006 z" stroke-linecap="round" />
</g>
		<g transform="matrix(1.2 0 0 1.2 218.46 27.41)"  >
<path style="stroke: none; stroke-width: 1; stroke-dasharray: none; stroke-linecap: butt; stroke-dashoffset: 0; stroke-linejoin: miter; stroke-miterlimit: 4; fill: rgb(186,221,32); fill-rule: evenodd; opacity: 1;"  transform=" translate(-412.04, -35.69)" d="M 502.163 34.279 C 501.52313973886424 34.75952300670313 501.23128793659976 35.57518598688144 501.4210611024771 36.35255955169093 C 501.6108342683545 37.12993311650041 502.2456991845348 37.71936513965636 503.035 37.851000000000006 C 503.788 37.976000000000006 506.59200000000004 38.214000000000006 509.13000000000005 38.321000000000005 C 510.41200000000003 38.376000000000005 511.70900000000006 38.401 512.706 38.355000000000004 C 513.1850000000001 38.332 513.698 38.290000000000006 514.128 38.19500000000001 C 514.3230000000001 38.15100000000001 514.664 38.06400000000001 515 37.867000000000004 C 515.283 37.702000000000005 516.176 37.07300000000001 516.082 35.853 C 516.043 35.351 515.867 34.856 515.727 34.508 C 515.5484061684141 34.07455490278828 515.3481538809548 33.650353807187024 515.127 33.236999999999995 C 514.605398646651 32.26101389881995 514.0319110024608 31.313657708941083 513.409 30.398999999999997 C 512.768 29.454 512.06 28.511000000000003 511.389 27.773 C 511.0619759469529 27.4061284244983 510.7054505715356 27.06666007923698 510.32300000000004 26.758 C 510.02200000000005 26.523 509.42900000000003 26.099999999999998 508.665 26.02 C 507.59245525035317 25.89403985655248 506.52900403278977 26.319269819697077 505.839 27.15 C 505.275 27.814999999999998 505.01 28.619999999999997 504.868 29.227999999999998 C 504.74138852880026 29.811285667216328 504.66246129719036 30.403908779134554 504.632 30.999999999999993 C 504.25193843961915 30.538853169201758 503.68558108631083 30.271814209869845 503.088 30.271999999999995 C 500.12 30.271999999999995 497.064 30.497999999999994 494.088 30.718999999999994 C 492.57500000000005 30.830999999999992 491.083 30.941999999999993 489.63300000000004 31.020999999999994 C 470.1500549112185 32.08180640478728 450.72069268442476 33.96615694151598 431.3969999999993 36.66900000000013 C 429.55500000000006 36.925999999999995 427.54400000000004 37.297 425.547 37.665 C 424.151 37.923 422.762 38.179 421.444 38.394999999999996 C 418.1 38.94 414.882 39.285 411.903 39.047999999999995 C 411.7735461711481 39.03702348929605 411.64494207409086 39.01764936558354 411.51800000000003 38.989999999999995 C 411.92900000000003 38.55 412.278 38.074999999999996 412.516 37.565999999999995 C 412.869 36.815999999999995 413.08500000000004 35.715999999999994 412.457 34.672999999999995 C 411.86899999999997 33.699 410.867 33.333999999999996 410.115 33.205999999999996 C 409.324 33.06999999999999 408.438 33.12199999999999 407.528 33.287 C 403.805 33.964 400.161 34.941 396.608 35.894 L 396.192 36.006 C 392.479 37.001 388.859 37.958 385.17900000000003 38.581 C 376.79200000000003 40 368.358 39.996 359.673 39.993 L 358.382 39.993 C 358.159 39.993 357.633 39.980000000000004 356.961 39.959 C 357.8094502727295 39.20352265248138 358.6093736370616 38.39524935741515 359.356 37.539 C 359.771 37.058 360.125 36.572 360.37 36.083 C 360.604 35.617999999999995 360.842 34.946 360.724 34.181999999999995 C 360.60378322578725 33.409766345174646 360.13608303813 32.735305081649955 359.455 32.352 C 358.94 32.053999999999995 358.39799999999997 31.958999999999996 358.014 31.921999999999997 C 357.232 31.848999999999997 356.366 31.959999999999997 355.69 32.07899999999999 C 354.976 32.205999999999996 354.297 32.37499999999999 353.829 32.498999999999995 C 343.565 35.236 333.266 37.650999999999996 322.847 39.669 Q 321.753 39.882999999999996 320.68899999999996 40.099 C 318.73199999999997 40.495999999999995 316.84399999999994 40.878 314.96899999999994 41.123 Q 315.2439999999999 40.925 315.52799999999996 40.729 C 316.623 39.975 317.73299999999995 39.297 318.84599999999995 38.616 C 319.35799999999995 38.303 319.86999999999995 37.99 320.381 37.669 C 321.31657036621334 37.08192131092987 321.5990786890701 35.847570366213375 321.012 34.912000000000006 C 320.42492131092985 33.976429633786644 319.19057036621336 33.69392131092987 318.255 34.281 C 317.824 34.551 317.35699999999997 34.836999999999996 316.871 35.134 L 316.86899999999997 35.136 C 315.714 35.842000000000006 314.44599999999997 36.618 313.26 37.434000000000005 C 311.551 38.611000000000004 309.819 39.996 308.491 41.679 C 308.26599999999996 41.964 307.89799999999997 42.571000000000005 308.026 43.389 C 308.15500000000003 44.211000000000006 308.695 44.673 308.992 44.869 C 309.51 45.209 310.101 45.291 310.31600000000003 45.32 C 310.91400000000004 45.401 311.60600000000005 45.389 311.91400000000004 45.38 C 315.232 45.292 318.54 44.620000000000005 321.61500000000007 43.995000000000005 C 322.2787038920817 43.858875049396566 322.9430445785889 43.72587357728601 323.608 43.59600000000003 C 334.1290000000001 41.559000000000005 344.5180000000001 39.122 354.86000000000007 36.365 L 354.91300000000007 36.35 L 354.99300000000005 36.33 C 353.5760000000001 37.696 351.89700000000005 38.988 350.28000000000003 40.028 C 350.14000000000004 40.118 349.3 40.682 349.36300000000006 41.821999999999996 C 349.3978229329592 42.45401540641702 349.7297738180732 43.03224046774979 350.25800000000004 43.38099999999999 L 350.26200000000006 43.38399999999999 C 350.45553939053207 43.5113033586837 350.6697239922169 43.60401517679058 350.89500000000004 43.657999999999994 C 351.023 43.68999999999999 351.136 43.70399999999999 351.16600000000005 43.70799999999999 L 351.16900000000004 43.70799999999999 C 351.26000000000005 43.718999999999994 351.36300000000006 43.727999999999994 351.44800000000004 43.733999999999995 C 351.63100000000003 43.74699999999999 351.88500000000005 43.76199999999999 352.175 43.776999999999994 C 352.762 43.806999999999995 353.558 43.839999999999996 354.38100000000003 43.87199999999999 C 356.00800000000004 43.934999999999995 357.83000000000004 43.99199999999999 358.382 43.99199999999999 L 359.76800000000003 43.99299999999999 L 359.77000000000004 43.99299999999999 C 368.372 43.99799999999999 377.117 44.00199999999999 385.84600000000006 42.52499999999999 C 389.73900000000003 41.864999999999995 393.53400000000005 40.85999999999999 397.22800000000007 39.86899999999999 L 397.58700000000005 39.772999999999996 C 400.96100000000007 38.867999999999995 404.25200000000007 37.986 407.58400000000006 37.346 C 407.27135666501107 37.797187031866535 407.07770414504773 38.32001443922756 407.0210000000001 38.866 C 406.92600000000004 39.824 407.28600000000006 40.646 407.76900000000006 41.24 C 408.67600000000004 42.357 410.1720000000001 42.922000000000004 411.58400000000006 43.035000000000004 C 415.05300000000005 43.312000000000005 418.6530000000001 42.902 422.0880000000001 42.342000000000006 C 423.6120000000001 42.09400000000001 425.0540000000001 41.82600000000001 426.45200000000006 41.56700000000001 C 428.33200000000005 41.21800000000001 430.13400000000007 40.88400000000001 431.95000000000005 40.63000000000001 C 451.1622070348803 37.94288075973711 470.479469436988 36.06954002765014 489.84999999999985 35.015 C 491.475 34.92700000000001 493.05100000000004 34.809000000000005 494.6 34.69400000000001 C 497.161 34.50300000000001 499.648 34.31700000000001 502.163 34.27900000000001 M 504.786 33.32900000000001 C 504.853 33.48700000000001 505.007 33.79500000000001 505.324 34.07200000000001 C 504.9346064119337 34.039636238754824 504.5455826261379 34.002967330067996 504.15700000000004 33.96200000000002 C 504.41100000000006 33.802000000000014 504.62700000000007 33.58400000000001 504.78600000000006 33.32900000000001 M 508.17600000000004 33.88600000000001 C 508.05335114711187 34.02487520631828 507.9119994402151 34.14603381222979 507.75600000000003 34.24600000000001 C 508.26000000000005 34.27600000000001 508.781 34.30300000000001 509.29900000000004 34.32500000000001 C 509.968 34.35300000000001 510.61 34.37200000000001 511.187 34.37700000000001 C 510.5740026992276 33.321561331482904 509.89498558952084 32.30587464647645 509.154 31.336 C 509.10109234629107 31.566994911041743 509.0440833434827 31.79703123816309 508.983 32.02600000000001 C 508.874 32.43500000000001 508.721 32.96300000000001 508.54200000000003 33.33100000000001 C 508.504 33.41000000000001 508.38700000000006 33.65100000000001 508.17600000000004 33.88600000000001 M 513.263 34.28900000000001 Q 513.294 34.281000000000006 513.2610000000001 34.28900000000001 z M 508.60400000000004 32.32900000000001 Q 508.60400000000004 32.34400000000001 508.60400000000004 32.32900000000001 M 356.8090000000001 34.25900000000001 L 356.8020000000001 34.275000000000006 z" stroke-linecap="round" />
</g>
</g>
</g>
<g transform="matrix(0.06 0 0 -0.06 346.09 73.16)"  >
<path style="stroke: none; stroke-width: 1; stroke-dasharray: none; stroke-linecap: butt; stroke-dashoffset: 0; stroke-linejoin: miter; stroke-miterlimit: 4; fill: rgb(187,221,38); fill-rule: nonzero; opacity: 1;"  transform=" translate(-1994.75, -1999.54)" d="M 1751 2637 c -208 -106 -235 -125 -205 -146 c 31 -23 54 -251 24 -251 c -5 0 -77 33 -160 74 l -150 75 l -240 -119 c -242 -120 -264 -136 -210 -157 c 23 -9 30 -46 30 -152 c 0 -119 6 -143 40 -161 c 39 -21 40 -15 40 155 l 0 176 l 170 84 l 170 85 l 0 -346 l 0 -345 l 208 -103 c 180 -90 212 -100 244 -77 c 34 24 33 27 -8 40 c -44 14 -44 17 -44 522 l 0 509 l 160 80 c 87 44 164 80 170 80 c 5 0 10 -320 10 -710 l 0 -710 l 242 121 c 222 111 240 124 205 149 c -35 24 -39 57 -44 315 c -6 330 -19 303 196 406 l 141 67 l 0 -339 c 0 -186 7 -339 15 -338 c 8 1 118 53 244 117 c 218 111 227 118 185 144 c -39 24 -44 45 -44 168 l 0 140 l -202 98 l -203 98 l -148 -73 c -190 -94 -185 -95 -183 52 c 1 69 0 139 -1 156 c -2 25 -376 243 -407 238 c -3 -1 -114 -56 -245 -122 z" stroke-linecap="round" />
</g>
<g transform="matrix(1 0 0 1 38 59)"  >
<rect style="stroke: none; stroke-width: 1; stroke-dasharray: none; stroke-linecap: butt; stroke-dashoffset: 0; stroke-linejoin: miter; stroke-miterlimit: 4; fill: rgb(255,255,255); fill-opacity: 0; fill-rule: nonzero; opacity: 1;"  x="-50" y="-50" rx="0" ry="0" width="100" height="100" />
</g>
<g transform="matrix(1 0 0 1 338 84)"  >
<rect style="stroke: none; stroke-width: 1; stroke-dasharray: none; stroke-linecap: butt; stroke-dashoffset: 0; stroke-linejoin: miter; stroke-miterlimit: 4; fill: rgb(255,255,255); fill-rule: nonzero; opacity: 1; visibility: hidden;"  x="-350" y="-75" rx="0" ry="0" width="700" height="150" />
</g>
<g transform="matrix(1.22 0 0 1.22 136.12 106.56)"  >
<path style="stroke: none; stroke-width: 1; stroke-dasharray: none; stroke-linecap: butt; stroke-dashoffset: 0; stroke-linejoin: miter; stroke-miterlimit: 4; fill: rgb(186,221,32); fill-rule: evenodd; opacity: 0.88;"  transform=" translate(-104.04, -35.69)" d="M 13.926 34.279 C 14.56589327284064 34.759661398752634 14.857636541864458 35.57550674130695 14.667632007932019 36.352936518176 C 14.477627473999577 37.13036629504505 13.842463382878313 37.71967464840377 13.053 37.851000000000006 C 12.301 37.976000000000006 9.497 38.214000000000006 6.9590000000000005 38.321000000000005 C 5.6770000000000005 38.376000000000005 4.3790000000000004 38.401 3.3830000000000005 38.355000000000004 C 2.9030000000000005 38.332 2.3910000000000005 38.290000000000006 1.9610000000000005 38.19500000000001 C 1.6550265098230468 38.13174228799717 1.3608129353846263 38.02107479669464 1.0890000000000004 37.867000000000004 C 0.8060000000000005 37.702000000000005 -0.08699999999999952 37.07300000000001 0.007000000000000339 35.853 C 0.04500000000000034 35.351 0.22200000000000034 34.856 0.3620000000000003 34.508 C 0.5220000000000004 34.11 0.7310000000000003 33.676 0.9620000000000003 33.237 C 1.4836013533489472 32.26101389881994 2.0570889975391733 31.313657708941083 2.6799999999999966 30.398999999999997 C 3.3200000000000003 29.454 4.03 28.511000000000003 4.7 27.773 C 5.027024053047117 27.406128424498295 5.383549428464423 27.066660079236975 5.766 26.758 C 6.066 26.523 6.66 26.099999999999998 7.4239999999999995 26.02 C 8.496544749646823 25.89403985655249 9.559995967210211 26.319269819697084 10.25 27.15 C 10.814 27.814999999999998 11.079 28.619999999999997 11.22 29.227999999999998 C 11.360000000000001 29.825 11.425 30.453999999999997 11.457 30.999999999999996 C 11.836838932284376 30.53912333155836 12.402768968286106 30.272112919238687 13 30.272 C 15.968 30.272 19.023 30.497999999999998 22 30.718999999999998 C 23.512 30.830999999999996 25.005 30.941999999999997 26.455 31.020999999999997 C 45.93794508878142 32.08180640478727 65.36730731557519 33.9661569415159 84.69100000000054 36.669000000000025 C 86.533 36.925999999999995 88.544 37.297 90.541 37.665 C 91.937 37.923 93.326 38.179 94.64399999999999 38.394999999999996 C 97.98799999999999 38.94 101.20599999999999 39.285 104.18499999999999 39.047999999999995 Q 104.39399999999999 39.029999999999994 104.57 38.989999999999995 C 104.15899999999999 38.55 103.80999999999999 38.074999999999996 103.57199999999999 37.565999999999995 C 103.219 36.815999999999995 103.00299999999999 35.715999999999994 103.63099999999999 34.672999999999995 C 104.21899999999998 33.699 105.22099999999999 33.333999999999996 105.97299999999998 33.205999999999996 C 106.76399999999998 33.06999999999999 107.64999999999999 33.12199999999999 108.55999999999999 33.287 C 112.28299999999999 33.964 115.92699999999999 34.941 119.47999999999999 35.894 L 119.895 36.006 C 123.60799999999999 37.001 127.229 37.958 130.909 38.581 C 139.296 40 147.73 39.996 156.414 39.993 L 157.706 39.993 C 157.929 39.993 158.45499999999998 39.980000000000004 159.12699999999998 39.959 C 158.27820651472763 39.20355445912678 157.47794849444128 38.39528049873737 156.731 37.539 C 156.317 37.058 155.963 36.572 155.71699999999998 36.083 C 155.48399999999998 35.617999999999995 155.24499999999998 34.946 155.36399999999998 34.181999999999995 C 155.4842167742127 33.409766345174646 155.95191696187 32.735305081649955 156.63299999999998 32.352 C 157.14799999999997 32.053999999999995 157.689 31.958999999999996 158.07399999999998 31.921999999999997 C 158.856 31.848999999999997 159.72099999999998 31.959999999999997 160.398 32.07899999999999 C 161.111 32.205999999999996 161.791 32.37499999999999 162.259 32.498999999999995 C 172.523 35.236 182.82199999999997 37.650999999999996 193.24099999999999 39.669 Q 194.33499999999998 39.882999999999996 195.39899999999997 40.099 C 197.35499999999996 40.495999999999995 199.24299999999997 40.878 201.11899999999997 41.123 Q 200.84399999999997 40.925 200.55999999999997 40.729 C 199.46499999999997 39.975 198.35499999999996 39.297 197.24199999999996 38.616 C 196.72999999999996 38.303 196.21799999999996 37.99 195.70699999999997 37.669 C 195.08674244109204 37.29627271675758 194.71619888263444 36.61757075548885 194.73806883205518 35.894268071705625 C 194.75993878147594 35.17096538792241 195.17081072958965 34.5158904890004 195.81245435968032 34.181318345779054 C 196.45409798977101 33.84674620255771 197.22642284915074 33.88486696499155 197.83199999999997 34.281 C 198.26399999999995 34.551 198.72999999999996 34.836999999999996 199.21699999999996 35.134 L 199.21899999999997 35.136 C 200.37399999999997 35.842000000000006 201.64199999999997 36.618 202.82799999999997 37.434000000000005 C 204.53699999999998 38.611000000000004 206.26899999999998 39.996 207.59699999999998 41.679 C 207.82199999999997 41.964 208.18999999999997 42.571000000000005 208.06199999999998 43.389 C 207.96338472680472 43.99658804951616 207.61250410773215 44.53416912221536 207.09599999999998 44.869 C 206.57799999999997 45.209 205.98699999999997 45.291 205.77199999999996 45.32 C 205.17399999999995 45.401 204.48199999999997 45.389 204.17399999999995 45.38 C 200.85599999999994 45.292 197.54799999999994 44.620000000000005 194.47299999999996 43.995000000000005 C 193.80929610791836 43.85887504939657 193.14495542141105 43.72587357728601 192.47999999999996 43.59600000000003 C 181.95899999999995 41.559000000000005 171.56999999999996 39.122 161.22799999999995 36.365 L 161.17399999999995 36.35 L 161.09499999999994 36.33 C 162.51199999999994 37.696 164.19099999999995 38.988 165.80799999999994 40.028 C 165.94799999999992 40.118 166.78799999999993 40.682 166.72499999999994 41.821999999999996 C 166.69017706704082 42.45401540641703 166.35822618192674 43.032240467749794 165.82999999999993 43.38099999999999 L 165.82599999999994 43.38399999999999 C 165.63246060946793 43.5113033586837 165.41827600778305 43.60401517679059 165.19299999999993 43.657999999999994 C 165.06499999999994 43.68999999999999 164.9519999999999 43.70399999999999 164.92199999999994 43.70799999999999 L 164.91899999999995 43.70799999999999 C 164.82699999999994 43.718999999999994 164.72499999999997 43.727999999999994 164.63999999999996 43.733999999999995 C 164.45699999999997 43.74699999999999 164.20299999999995 43.76199999999999 163.91299999999995 43.776999999999994 C 163.32599999999996 43.806999999999995 162.52999999999994 43.839999999999996 161.70699999999997 43.87199999999999 C 160.07999999999996 43.934999999999995 158.25799999999995 43.99199999999999 157.70599999999996 43.99199999999999 L 156.31999999999996 43.99299999999999 L 156.31799999999996 43.99299999999999 C 147.71599999999995 43.99799999999999 138.97099999999995 44.00199999999999 130.24199999999996 42.52499999999999 C 126.34899999999996 41.864999999999995 122.55399999999996 40.85999999999999 118.85999999999996 39.86899999999999 L 118.49999999999996 39.772999999999996 C 115.12599999999996 38.867999999999995 111.83599999999996 37.986 108.50399999999996 37.346 C 108.79999999999997 37.781 109.00899999999996 38.29 109.06699999999996 38.866 C 109.16099999999996 39.824 108.80199999999996 40.646 108.31899999999996 41.24 C 107.41199999999996 42.357 105.91599999999995 42.922000000000004 104.50399999999996 43.035000000000004 C 101.03499999999997 43.312000000000005 97.43499999999996 42.902 93.99999999999996 42.342000000000006 C 92.47599999999996 42.09400000000001 91.03399999999996 41.82600000000001 89.63599999999995 41.56700000000001 C 87.75599999999996 41.21800000000001 85.95399999999995 40.88400000000001 84.13799999999995 40.63000000000001 C 64.92579296511968 37.942880759737115 45.6085305630118 36.069540027650135 26.23799999999992 35.015 C 24.653614802302577 34.924179152622095 23.07019883487311 34.817173568296866 21.487999999999943 34.69400000000001 C 18.92699999999995 34.50300000000001 16.43899999999995 34.31700000000001 13.924999999999951 34.27900000000001 M 11.30099999999995 33.32900000000001 C 11.23399999999995 33.48700000000001 11.08099999999995 33.79500000000001 10.76399999999995 34.07200000000001 C 11.23699999999995 34.03200000000001 11.636999999999949 33.99400000000001 11.93099999999995 33.96200000000001 C 11.675972335644683 33.80118317352243 11.46060348580748 33.58478875773363 11.300999999999949 33.32900000000001 M 7.910999999999948 33.88600000000001 C 7.9759999999999485 33.95800000000001 8.114999999999949 34.10600000000001 8.331999999999947 34.24600000000001 C 7.827999999999948 34.27600000000001 7.306999999999947 34.30300000000001 6.788999999999947 34.32500000000001 C 6.118999999999947 34.35300000000001 5.477999999999947 34.37200000000001 4.900999999999947 34.37700000000001 C 5.220999999999948 33.82400000000001 5.594999999999947 33.22700000000001 5.990999999999947 32.64300000000001 C 6.306999999999947 32.175000000000004 6.626999999999947 31.732000000000006 6.933999999999947 31.33600000000001 C 6.990999999999947 31.58300000000001 7.048999999999947 31.81600000000001 7.103999999999947 32.02600000000001 C 7.213999999999947 32.43500000000001 7.366999999999947 32.96300000000001 7.545999999999947 33.33100000000001 C 7.583999999999947 33.41000000000001 7.700999999999947 33.65100000000001 7.911999999999947 33.88600000000001 M 2.8259999999999463 34.28900000000001 Q 2.7939999999999463 34.281000000000006 2.827999999999946 34.28900000000001 z M 7.483999999999947 32.32900000000001 Q 7.483999999999947 32.34400000000001 7.483999999999947 32.32900000000001 M 159.27999999999994 34.25900000000001 L 159.28699999999995 34.275000000000006 z" stroke-linecap="round" />
</g>
<g transform="matrix(1.2 0 0 1.2 568.46 107.41)"  >
<path style="stroke: none; stroke-width: 1; stroke-dasharray: none; stroke-linecap: butt; stroke-dashoffset: 0; stroke-linejoin: miter; stroke-miterlimit: 4; fill: rgb(186,221,32); fill-rule: evenodd; opacity: 1;"  transform=" translate(-412.04, -35.69)" d="M 502.163 34.279 C 501.52313973886424 34.75952300670313 501.23128793659976 35.57518598688144 501.4210611024771 36.35255955169093 C 501.6108342683545 37.12993311650041 502.2456991845348 37.71936513965636 503.035 37.851000000000006 C 503.788 37.976000000000006 506.59200000000004 38.214000000000006 509.13000000000005 38.321000000000005 C 510.41200000000003 38.376000000000005 511.70900000000006 38.401 512.706 38.355000000000004 C 513.1850000000001 38.332 513.698 38.290000000000006 514.128 38.19500000000001 C 514.3230000000001 38.15100000000001 514.664 38.06400000000001 515 37.867000000000004 C 515.283 37.702000000000005 516.176 37.07300000000001 516.082 35.853 C 516.043 35.351 515.867 34.856 515.727 34.508 C 515.5484061684141 34.07455490278828 515.3481538809548 33.650353807187024 515.127 33.236999999999995 C 514.605398646651 32.26101389881995 514.0319110024608 31.313657708941083 513.409 30.398999999999997 C 512.768 29.454 512.06 28.511000000000003 511.389 27.773 C 511.0619759469529 27.4061284244983 510.7054505715356 27.06666007923698 510.32300000000004 26.758 C 510.02200000000005 26.523 509.42900000000003 26.099999999999998 508.665 26.02 C 507.59245525035317 25.89403985655248 506.52900403278977 26.319269819697077 505.839 27.15 C 505.275 27.814999999999998 505.01 28.619999999999997 504.868 29.227999999999998 C 504.74138852880026 29.811285667216328 504.66246129719036 30.403908779134554 504.632 30.999999999999993 C 504.25193843961915 30.538853169201758 503.68558108631083 30.271814209869845 503.088 30.271999999999995 C 500.12 30.271999999999995 497.064 30.497999999999994 494.088 30.718999999999994 C 492.57500000000005 30.830999999999992 491.083 30.941999999999993 489.63300000000004 31.020999999999994 C 470.1500549112185 32.08180640478728 450.72069268442476 33.96615694151598 431.3969999999993 36.66900000000013 C 429.55500000000006 36.925999999999995 427.54400000000004 37.297 425.547 37.665 C 424.151 37.923 422.762 38.179 421.444 38.394999999999996 C 418.1 38.94 414.882 39.285 411.903 39.047999999999995 C 411.7735461711481 39.03702348929605 411.64494207409086 39.01764936558354 411.51800000000003 38.989999999999995 C 411.92900000000003 38.55 412.278 38.074999999999996 412.516 37.565999999999995 C 412.869 36.815999999999995 413.08500000000004 35.715999999999994 412.457 34.672999999999995 C 411.86899999999997 33.699 410.867 33.333999999999996 410.115 33.205999999999996 C 409.324 33.06999999999999 408.438 33.12199999999999 407.528 33.287 C 403.805 33.964 400.161 34.941 396.608 35.894 L 396.192 36.006 C 392.479 37.001 388.859 37.958 385.17900000000003 38.581 C 376.79200000000003 40 368.358 39.996 359.673 39.993 L 358.382 39.993 C 358.159 39.993 357.633 39.980000000000004 356.961 39.959 C 357.8094502727295 39.20352265248138 358.6093736370616 38.39524935741515 359.356 37.539 C 359.771 37.058 360.125 36.572 360.37 36.083 C 360.604 35.617999999999995 360.842 34.946 360.724 34.181999999999995 C 360.60378322578725 33.409766345174646 360.13608303813 32.735305081649955 359.455 32.352 C 358.94 32.053999999999995 358.39799999999997 31.958999999999996 358.014 31.921999999999997 C 357.232 31.848999999999997 356.366 31.959999999999997 355.69 32.07899999999999 C 354.976 32.205999999999996 354.297 32.37499999999999 353.829 32.498999999999995 C 343.565 35.236 333.266 37.650999999999996 322.847 39.669 Q 321.753 39.882999999999996 320.68899999999996 40.099 C 318.73199999999997 40.495999999999995 316.84399999999994 40.878 314.96899999999994 41.123 Q 315.2439999999999 40.925 315.52799999999996 40.729 C 316.623 39.975 317.73299999999995 39.297 318.84599999999995 38.616 C 319.35799999999995 38.303 319.86999999999995 37.99 320.381 37.669 C 321.31657036621334 37.08192131092987 321.5990786890701 35.847570366213375 321.012 34.912000000000006 C 320.42492131092985 33.976429633786644 319.19057036621336 33.69392131092987 318.255 34.281 C 317.824 34.551 317.35699999999997 34.836999999999996 316.871 35.134 L 316.86899999999997 35.136 C 315.714 35.842000000000006 314.44599999999997 36.618 313.26 37.434000000000005 C 311.551 38.611000000000004 309.819 39.996 308.491 41.679 C 308.26599999999996 41.964 307.89799999999997 42.571000000000005 308.026 43.389 C 308.15500000000003 44.211000000000006 308.695 44.673 308.992 44.869 C 309.51 45.209 310.101 45.291 310.31600000000003 45.32 C 310.91400000000004 45.401 311.60600000000005 45.389 311.91400000000004 45.38 C 315.232 45.292 318.54 44.620000000000005 321.61500000000007 43.995000000000005 C 322.2787038920817 43.858875049396566 322.9430445785889 43.72587357728601 323.608 43.59600000000003 C 334.1290000000001 41.559000000000005 344.5180000000001 39.122 354.86000000000007 36.365 L 354.91300000000007 36.35 L 354.99300000000005 36.33 C 353.5760000000001 37.696 351.89700000000005 38.988 350.28000000000003 40.028 C 350.14000000000004 40.118 349.3 40.682 349.36300000000006 41.821999999999996 C 349.3978229329592 42.45401540641702 349.7297738180732 43.03224046774979 350.25800000000004 43.38099999999999 L 350.26200000000006 43.38399999999999 C 350.45553939053207 43.5113033586837 350.6697239922169 43.60401517679058 350.89500000000004 43.657999999999994 C 351.023 43.68999999999999 351.136 43.70399999999999 351.16600000000005 43.70799999999999 L 351.16900000000004 43.70799999999999 C 351.26000000000005 43.718999999999994 351.36300000000006 43.727999999999994 351.44800000000004 43.733999999999995 C 351.63100000000003 43.74699999999999 351.88500000000005 43.76199999999999 352.175 43.776999999999994 C 352.762 43.806999999999995 353.558 43.839999999999996 354.38100000000003 43.87199999999999 C 356.00800000000004 43.934999999999995 357.83000000000004 43.99199999999999 358.382 43.99199999999999 L 359.76800000000003 43.99299999999999 L 359.77000000000004 43.99299999999999 C 368.372 43.99799999999999 377.117 44.00199999999999 385.84600000000006 42.52499999999999 C 389.73900000000003 41.864999999999995 393.53400000000005 40.85999999999999 397.22800000000007 39.86899999999999 L 397.58700000000005 39.772999999999996 C 400.96100000000007 38.867999999999995 404.25200000000007 37.986 407.58400000000006 37.346 C 407.27135666501107 37.797187031866535 407.07770414504773 38.32001443922756 407.0210000000001 38.866 C 406.92600000000004 39.824 407.28600000000006 40.646 407.76900000000006 41.24 C 408.67600000000004 42.357 410.1720000000001 42.922000000000004 411.58400000000006 43.035000000000004 C 415.05300000000005 43.312000000000005 418.6530000000001 42.902 422.0880000000001 42.342000000000006 C 423.6120000000001 42.09400000000001 425.0540000000001 41.82600000000001 426.45200000000006 41.56700000000001 C 428.33200000000005 41.21800000000001 430.13400000000007 40.88400000000001 431.95000000000005 40.63000000000001 C 451.1622070348803 37.94288075973711 470.479469436988 36.06954002765014 489.84999999999985 35.015 C 491.475 34.92700000000001 493.05100000000004 34.809000000000005 494.6 34.69400000000001 C 497.161 34.50300000000001 499.648 34.31700000000001 502.163 34.27900000000001 M 504.786 33.32900000000001 C 504.853 33.48700000000001 505.007 33.79500000000001 505.324 34.07200000000001 C 504.9346064119337 34.039636238754824 504.5455826261379 34.002967330067996 504.15700000000004 33.96200000000002 C 504.41100000000006 33.802000000000014 504.62700000000007 33.58400000000001 504.78600000000006 33.32900000000001 M 508.17600000000004 33.88600000000001 C 508.05335114711187 34.02487520631828 507.9119994402151 34.14603381222979 507.75600000000003 34.24600000000001 C 508.26000000000005 34.27600000000001 508.781 34.30300000000001 509.29900000000004 34.32500000000001 C 509.968 34.35300000000001 510.61 34.37200000000001 511.187 34.37700000000001 C 510.5740026992276 33.321561331482904 509.89498558952084 32.30587464647645 509.154 31.336 C 509.10109234629107 31.566994911041743 509.0440833434827 31.79703123816309 508.983 32.02600000000001 C 508.874 32.43500000000001 508.721 32.96300000000001 508.54200000000003 33.33100000000001 C 508.504 33.41000000000001 508.38700000000006 33.65100000000001 508.17600000000004 33.88600000000001 M 513.263 34.28900000000001 Q 513.294 34.281000000000006 513.2610000000001 34.28900000000001 z M 508.60400000000004 32.32900000000001 Q 508.60400000000004 32.34400000000001 508.60400000000004 32.32900000000001 M 356.8090000000001 34.25900000000001 L 356.8020000000001 34.275000000000006 z" stroke-linecap="round" />
</g>
</svg>